<svg width="40" height="40" viewBox="0 0 40 40" fill="none" xmlns="http://www.w3.org/2000/svg">
<path d="M22.8832 5.84984L25.8165 11.7165C26.2165 12.5332 27.2832 13.3165 28.1832 13.4665L33.4998 14.3498C36.8998 14.9165 37.6998 17.3832 35.2498 19.8165L31.1165 23.9498C30.4165 24.6498 30.0332 25.9998 30.2498 26.9665L31.4332 32.0832C32.3665 36.1332 30.2165 37.6998 26.6332 35.5832L21.6498 32.6332C20.7498 32.0998 19.2665 32.0998 18.3498 32.6332L13.3665 35.5832C9.79985 37.6998 7.63318 36.1165 8.56651 32.0832L9.74985 26.9665C9.96651 25.9998 9.58318 24.6498 8.88318 23.9498L4.74985 19.8165C2.31651 17.3832 3.09985 14.9165 6.49985 14.3498L11.8165 13.4665C12.6998 13.3165 13.7665 12.5332 14.1665 11.7165L17.0998 5.84984C18.6998 2.66651 21.2998 2.66651 22.8832 5.84984Z" fill="#D7C24D"/>
</svg>
